<mxfile host="65bd71144e">
    <diagram id="TNjV2sSxUNL2ErxWk8xv" name="ページ1">
        <mxGraphModel dx="950" dy="686" grid="1" gridSize="10" guides="1" tooltips="1" connect="1" arrows="1" fold="1" page="1" pageScale="1" pageWidth="827" pageHeight="1169" math="0" shadow="0">
            <root>
                <mxCell id="0"/>
                <mxCell id="1" parent="0"/>
                <mxCell id="2" value="" style="endArrow=classic;html=1;endFill=1;" edge="1" parent="1">
                    <mxGeometry width="50" height="50" relative="1" as="geometry">
                        <mxPoint x="110" y="330" as="sourcePoint"/>
                        <mxPoint x="390" y="330" as="targetPoint"/>
                    </mxGeometry>
                </mxCell>
                <mxCell id="3" value="" style="endArrow=classic;html=1;endFill=1;" edge="1" parent="1">
                    <mxGeometry width="50" height="50" relative="1" as="geometry">
                        <mxPoint x="150" y="380" as="sourcePoint"/>
                        <mxPoint x="150" y="100" as="targetPoint"/>
                    </mxGeometry>
                </mxCell>
                <mxCell id="4" value="" style="ellipse;whiteSpace=wrap;html=1;rotation=-35;" vertex="1" parent="1">
                    <mxGeometry x="152.32000000000002" y="185.67000000000002" width="230" height="84.33" as="geometry"/>
                </mxCell>
                <mxCell id="5" value="" style="shape=waypoint;sketch=0;fillStyle=solid;size=6;pointerEvents=1;points=[];fillColor=none;resizable=0;rotatable=0;perimeter=centerPerimeter;snapToPoint=1;" vertex="1" parent="1">
                    <mxGeometry x="230" y="210" width="20" height="20" as="geometry"/>
                </mxCell>
                <mxCell id="6" value="" style="shape=waypoint;sketch=0;fillStyle=solid;size=6;pointerEvents=1;points=[];fillColor=none;resizable=0;rotatable=0;perimeter=centerPerimeter;snapToPoint=1;" vertex="1" parent="1">
                    <mxGeometry x="230" y="230" width="20" height="20" as="geometry"/>
                </mxCell>
                <mxCell id="7" value="" style="shape=waypoint;sketch=0;fillStyle=solid;size=6;pointerEvents=1;points=[];fillColor=none;resizable=0;rotatable=0;perimeter=centerPerimeter;snapToPoint=1;" vertex="1" parent="1">
                    <mxGeometry x="260" y="220" width="20" height="20" as="geometry"/>
                </mxCell>
                <mxCell id="8" value="" style="shape=waypoint;sketch=0;fillStyle=solid;size=6;pointerEvents=1;points=[];fillColor=none;resizable=0;rotatable=0;perimeter=centerPerimeter;snapToPoint=1;" vertex="1" parent="1">
                    <mxGeometry x="250" y="230" width="20" height="20" as="geometry"/>
                </mxCell>
                <mxCell id="9" value="" style="shape=waypoint;sketch=0;fillStyle=solid;size=6;pointerEvents=1;points=[];fillColor=none;resizable=0;rotatable=0;perimeter=centerPerimeter;snapToPoint=1;" vertex="1" parent="1">
                    <mxGeometry x="220" y="250" width="20" height="20" as="geometry"/>
                </mxCell>
                <mxCell id="18" value="" style="shape=waypoint;sketch=0;fillStyle=solid;size=6;pointerEvents=1;points=[];fillColor=none;resizable=0;rotatable=0;perimeter=centerPerimeter;snapToPoint=1;" vertex="1" parent="1">
                    <mxGeometry x="290" y="190" width="20" height="20" as="geometry"/>
                </mxCell>
                <mxCell id="19" value="" style="shape=waypoint;sketch=0;fillStyle=solid;size=6;pointerEvents=1;points=[];fillColor=none;resizable=0;rotatable=0;perimeter=centerPerimeter;snapToPoint=1;" vertex="1" parent="1">
                    <mxGeometry x="290" y="210" width="20" height="20" as="geometry"/>
                </mxCell>
                <mxCell id="20" value="" style="shape=waypoint;sketch=0;fillStyle=solid;size=6;pointerEvents=1;points=[];fillColor=none;resizable=0;rotatable=0;perimeter=centerPerimeter;snapToPoint=1;" vertex="1" parent="1">
                    <mxGeometry x="320" y="200" width="20" height="20" as="geometry"/>
                </mxCell>
                <mxCell id="21" value="" style="shape=waypoint;sketch=0;fillStyle=solid;size=6;pointerEvents=1;points=[];fillColor=none;resizable=0;rotatable=0;perimeter=centerPerimeter;snapToPoint=1;" vertex="1" parent="1">
                    <mxGeometry x="240" y="250" width="20" height="20" as="geometry"/>
                </mxCell>
                <mxCell id="22" value="" style="shape=waypoint;sketch=0;fillStyle=solid;size=6;pointerEvents=1;points=[];fillColor=none;resizable=0;rotatable=0;perimeter=centerPerimeter;snapToPoint=1;" vertex="1" parent="1">
                    <mxGeometry x="280" y="230" width="20" height="20" as="geometry"/>
                </mxCell>
                <mxCell id="23" value="" style="shape=waypoint;sketch=0;fillStyle=solid;size=6;pointerEvents=1;points=[];fillColor=none;resizable=0;rotatable=0;perimeter=centerPerimeter;snapToPoint=1;" vertex="1" parent="1">
                    <mxGeometry x="190" y="230" width="20" height="20" as="geometry"/>
                </mxCell>
                <mxCell id="24" value="" style="shape=waypoint;sketch=0;fillStyle=solid;size=6;pointerEvents=1;points=[];fillColor=none;resizable=0;rotatable=0;perimeter=centerPerimeter;snapToPoint=1;" vertex="1" parent="1">
                    <mxGeometry x="190" y="250" width="20" height="20" as="geometry"/>
                </mxCell>
                <mxCell id="25" value="" style="shape=waypoint;sketch=0;fillStyle=solid;size=6;pointerEvents=1;points=[];fillColor=none;resizable=0;rotatable=0;perimeter=centerPerimeter;snapToPoint=1;" vertex="1" parent="1">
                    <mxGeometry x="220" y="240" width="20" height="20" as="geometry"/>
                </mxCell>
                <mxCell id="26" value="" style="shape=waypoint;sketch=0;fillStyle=solid;size=6;pointerEvents=1;points=[];fillColor=none;resizable=0;rotatable=0;perimeter=centerPerimeter;snapToPoint=1;" vertex="1" parent="1">
                    <mxGeometry x="240" y="270" width="20" height="20" as="geometry"/>
                </mxCell>
                <mxCell id="27" value="" style="shape=waypoint;sketch=0;fillStyle=solid;size=6;pointerEvents=1;points=[];fillColor=none;resizable=0;rotatable=0;perimeter=centerPerimeter;snapToPoint=1;" vertex="1" parent="1">
                    <mxGeometry x="180" y="270" width="20" height="20" as="geometry"/>
                </mxCell>
                <mxCell id="28" value="" style="shape=waypoint;sketch=0;fillStyle=solid;size=6;pointerEvents=1;points=[];fillColor=none;resizable=0;rotatable=0;perimeter=centerPerimeter;snapToPoint=1;" vertex="1" parent="1">
                    <mxGeometry x="300" y="160" width="20" height="20" as="geometry"/>
                </mxCell>
                <mxCell id="29" value="" style="shape=waypoint;sketch=0;fillStyle=solid;size=6;pointerEvents=1;points=[];fillColor=none;resizable=0;rotatable=0;perimeter=centerPerimeter;snapToPoint=1;" vertex="1" parent="1">
                    <mxGeometry x="300" y="180" width="20" height="20" as="geometry"/>
                </mxCell>
                <mxCell id="30" value="" style="shape=waypoint;sketch=0;fillStyle=solid;size=6;pointerEvents=1;points=[];fillColor=none;resizable=0;rotatable=0;perimeter=centerPerimeter;snapToPoint=1;" vertex="1" parent="1">
                    <mxGeometry x="330" y="170" width="20" height="20" as="geometry"/>
                </mxCell>
                <mxCell id="31" value="" style="shape=waypoint;sketch=0;fillStyle=solid;size=6;pointerEvents=1;points=[];fillColor=none;resizable=0;rotatable=0;perimeter=centerPerimeter;snapToPoint=1;" vertex="1" parent="1">
                    <mxGeometry x="320" y="180" width="20" height="20" as="geometry"/>
                </mxCell>
                <mxCell id="32" value="" style="shape=waypoint;sketch=0;fillStyle=solid;size=6;pointerEvents=1;points=[];fillColor=none;resizable=0;rotatable=0;perimeter=centerPerimeter;snapToPoint=1;" vertex="1" parent="1">
                    <mxGeometry x="290" y="200" width="20" height="20" as="geometry"/>
                </mxCell>
                <mxCell id="33" value="" style="shape=waypoint;sketch=0;fillStyle=solid;size=6;pointerEvents=1;points=[];fillColor=none;resizable=0;rotatable=0;perimeter=centerPerimeter;snapToPoint=1;" vertex="1" parent="1">
                    <mxGeometry x="270" y="200" width="20" height="20" as="geometry"/>
                </mxCell>
                <mxCell id="34" value="" style="shape=waypoint;sketch=0;fillStyle=solid;size=6;pointerEvents=1;points=[];fillColor=none;resizable=0;rotatable=0;perimeter=centerPerimeter;snapToPoint=1;" vertex="1" parent="1">
                    <mxGeometry x="290" y="221.34" width="20" height="20" as="geometry"/>
                </mxCell>
                <mxCell id="35" value="" style="shape=waypoint;sketch=0;fillStyle=solid;size=6;pointerEvents=1;points=[];fillColor=none;resizable=0;rotatable=0;perimeter=centerPerimeter;snapToPoint=1;" vertex="1" parent="1">
                    <mxGeometry x="280" y="180" width="20" height="20" as="geometry"/>
                </mxCell>
                <mxCell id="36" value="" style="shape=waypoint;sketch=0;fillStyle=solid;size=6;pointerEvents=1;points=[];fillColor=none;resizable=0;rotatable=0;perimeter=centerPerimeter;snapToPoint=1;" vertex="1" parent="1">
                    <mxGeometry x="257.32" y="190" width="20" height="20" as="geometry"/>
                </mxCell>
                <mxCell id="37" value="" style="shape=waypoint;sketch=0;fillStyle=solid;size=6;pointerEvents=1;points=[];fillColor=none;resizable=0;rotatable=0;perimeter=centerPerimeter;snapToPoint=1;" vertex="1" parent="1">
                    <mxGeometry x="260" y="240" width="20" height="20" as="geometry"/>
                </mxCell>
                <mxCell id="38" value="" style="shape=waypoint;sketch=0;fillStyle=solid;size=6;pointerEvents=1;points=[];fillColor=none;resizable=0;rotatable=0;perimeter=centerPerimeter;snapToPoint=1;" vertex="1" parent="1">
                    <mxGeometry x="210" y="220" width="20" height="20" as="geometry"/>
                </mxCell>
                <mxCell id="39" value="" style="shape=waypoint;sketch=0;fillStyle=solid;size=6;pointerEvents=1;points=[];fillColor=none;resizable=0;rotatable=0;perimeter=centerPerimeter;snapToPoint=1;" vertex="1" parent="1">
                    <mxGeometry x="250" y="210" width="20" height="20" as="geometry"/>
                </mxCell>
                <mxCell id="40" value="" style="shape=waypoint;sketch=0;fillStyle=solid;size=6;pointerEvents=1;points=[];fillColor=none;resizable=0;rotatable=0;perimeter=centerPerimeter;snapToPoint=1;" vertex="1" parent="1">
                    <mxGeometry x="260" y="240" width="20" height="20" as="geometry"/>
                </mxCell>
                <mxCell id="41" value="" style="shape=waypoint;sketch=0;fillStyle=solid;size=6;pointerEvents=1;points=[];fillColor=none;resizable=0;rotatable=0;perimeter=centerPerimeter;snapToPoint=1;" vertex="1" parent="1">
                    <mxGeometry x="277.32" y="241.34" width="20" height="20" as="geometry"/>
                </mxCell>
                <mxCell id="42" value="" style="shape=waypoint;sketch=0;fillStyle=solid;size=6;pointerEvents=1;points=[];fillColor=none;resizable=0;rotatable=0;perimeter=centerPerimeter;snapToPoint=1;" vertex="1" parent="1">
                    <mxGeometry x="220" y="270" width="20" height="20" as="geometry"/>
                </mxCell>
                <mxCell id="43" value="Y" style="text;html=1;align=center;verticalAlign=middle;resizable=0;points=[];autosize=1;strokeColor=none;fillColor=none;" vertex="1" parent="1">
                    <mxGeometry x="135" y="68" width="30" height="30" as="geometry"/>
                </mxCell>
                <mxCell id="44" value="X" style="text;html=1;align=center;verticalAlign=middle;resizable=0;points=[];autosize=1;strokeColor=none;fillColor=none;" vertex="1" parent="1">
                    <mxGeometry x="390" y="318" width="30" height="30" as="geometry"/>
                </mxCell>
                <mxCell id="45" value="" style="endArrow=none;html=1;strokeColor=#FF3333;strokeWidth=3;" edge="1" parent="1">
                    <mxGeometry width="50" height="50" relative="1" as="geometry">
                        <mxPoint x="155" y="318" as="sourcePoint"/>
                        <mxPoint x="385" y="138" as="targetPoint"/>
                    </mxGeometry>
                </mxCell>
                <mxCell id="46" value="" style="endArrow=none;html=1;strokeColor=#FF3333;strokeWidth=3;" edge="1" parent="1">
                    <mxGeometry width="50" height="50" relative="1" as="geometry">
                        <mxPoint x="310" y="280" as="sourcePoint"/>
                        <mxPoint x="230" y="180" as="targetPoint"/>
                    </mxGeometry>
                </mxCell>
                <mxCell id="47" value="新第1軸" style="text;html=1;align=center;verticalAlign=middle;resizable=0;points=[];autosize=1;strokeColor=none;fillColor=none;" vertex="1" parent="1">
                    <mxGeometry x="350" y="110" width="70" height="30" as="geometry"/>
                </mxCell>
                <mxCell id="48" value="新第2軸" style="text;html=1;align=center;verticalAlign=middle;resizable=0;points=[];autosize=1;strokeColor=none;fillColor=none;" vertex="1" parent="1">
                    <mxGeometry x="190" y="145.67000000000002" width="70" height="30" as="geometry"/>
                </mxCell>
            </root>
        </mxGraphModel>
    </diagram>
</mxfile>